<mxfile host="app.diagrams.net" agent="Mozilla/5.0 (Windows NT 10.0; Win64; x64) AppleWebKit/537.36 (KHTML, like Gecko) Chrome/131.0.0.0 Safari/537.36" version="25.0.1">
  <diagram name="Troisieme_version" id="YauvPk-F1fpuxmVFumh4">
    <mxGraphModel dx="2004" dy="607" grid="1" gridSize="10" guides="1" tooltips="1" connect="1" arrows="1" fold="1" page="1" pageScale="1" pageWidth="827" pageHeight="1169" math="0" shadow="0">
      <root>
        <mxCell id="2UzMBbFxG-jk5nLvKuJf-0" />
        <mxCell id="2UzMBbFxG-jk5nLvKuJf-1" parent="2UzMBbFxG-jk5nLvKuJf-0" />
        <mxCell id="2UzMBbFxG-jk5nLvKuJf-2" value="&lt;p style=&quot;margin:0px;margin-top:4px;text-align:center;text-decoration:underline;&quot;&gt;&lt;b&gt;Film&lt;/b&gt;&lt;/p&gt;&lt;hr size=&quot;1&quot; style=&quot;border-style:solid;&quot;&gt;&lt;p style=&quot;margin:0px;margin-left:8px;&quot;&gt;- &lt;u&gt;id : int&lt;/u&gt;&lt;/p&gt;&lt;p style=&quot;margin:0px;margin-left:8px;&quot;&gt;- id_collection * : int&lt;/p&gt;&lt;p style=&quot;margin:0px;margin-left:8px;&quot;&gt;- id_directeur * : int&lt;/p&gt;&lt;p style=&quot;margin:0px;margin-left:8px;&quot;&gt;- title : str&lt;/p&gt;&lt;p style=&quot;margin:0px;margin-left:8px;&quot;&gt;- release_date : date&lt;/p&gt;&lt;p style=&quot;margin:0px;margin-left:8px;&quot;&gt;- popularity : float&lt;/p&gt;&lt;p style=&quot;margin:0px;margin-left:8px;&quot;&gt;- runtime : float&lt;/p&gt;&lt;p style=&quot;margin:0px;margin-left:8px;&quot;&gt;- budget :&amp;nbsp; float&lt;/p&gt;&lt;p style=&quot;margin:0px;margin-left:8px;&quot;&gt;- revenue : float&lt;/p&gt;&lt;p style=&quot;margin: 0px 0px 0px 8px;&quot;&gt;- overwiew : text&lt;/p&gt;&lt;p style=&quot;margin: 0px 0px 0px 8px;&quot;&gt;- tagline : text&lt;/p&gt;&lt;p style=&quot;margin: 0px 0px 0px 8px;&quot;&gt;- poster_path (à préparer) : str&lt;/p&gt;&lt;p style=&quot;margin: 0px 0px 0px 8px;&quot;&gt;- vote_count : int&lt;/p&gt;&lt;p style=&quot;margin: 0px 0px 0px 8px;&quot;&gt;- vote_average : float&lt;/p&gt;" style="verticalAlign=top;align=left;overflow=fill;html=1;whiteSpace=wrap;" parent="2UzMBbFxG-jk5nLvKuJf-1" vertex="1">
          <mxGeometry x="310" y="200" width="160" height="270" as="geometry" />
        </mxCell>
        <mxCell id="2UzMBbFxG-jk5nLvKuJf-3" value="&lt;p style=&quot;margin:0px;margin-top:4px;text-align:center;text-decoration:underline;&quot;&gt;&lt;b&gt;Genre&lt;/b&gt;&lt;/p&gt;&lt;hr size=&quot;1&quot; style=&quot;border-style:solid;&quot;&gt;&lt;p style=&quot;margin:0px;margin-left:8px;&quot;&gt;- &lt;u&gt;id&lt;/u&gt; : int&lt;/p&gt;&lt;p style=&quot;margin:0px;margin-left:8px;&quot;&gt;- genre : str&lt;/p&gt;" style="verticalAlign=top;align=left;overflow=fill;html=1;whiteSpace=wrap;" parent="2UzMBbFxG-jk5nLvKuJf-1" vertex="1">
          <mxGeometry x="50" y="50" width="160" height="100" as="geometry" />
        </mxCell>
        <mxCell id="2UzMBbFxG-jk5nLvKuJf-4" value="&lt;p style=&quot;margin:0px;margin-top:4px;text-align:center;text-decoration:underline;&quot;&gt;&lt;b&gt;Genre_film&lt;/b&gt;&lt;/p&gt;&lt;hr size=&quot;1&quot; style=&quot;border-style:solid;&quot;&gt;&lt;p style=&quot;margin:0px;margin-left:8px;&quot;&gt;&lt;span style=&quot;background-color: initial;&quot;&gt;&lt;u&gt;- id_film * : int&amp;nbsp;&lt;/u&gt;&lt;/span&gt;&lt;/p&gt;&lt;p style=&quot;margin:0px;margin-left:8px;&quot;&gt;&lt;u&gt;- id_genre * : int&lt;/u&gt;&lt;/p&gt;&lt;p style=&quot;margin:0px;margin-left:8px;&quot;&gt;&lt;br&gt;&lt;/p&gt;&lt;p style=&quot;margin:0px;margin-left:8px;&quot;&gt;&lt;br&gt;&lt;/p&gt;&lt;p style=&quot;margin:0px;margin-left:8px;&quot;&gt;&lt;br&gt;&lt;/p&gt;&lt;p style=&quot;margin:0px;margin-left:8px;&quot;&gt;Traitement à faire sous python pour la colonne genre (| en séparateur)&lt;/p&gt;" style="verticalAlign=top;align=left;overflow=fill;html=1;whiteSpace=wrap;" parent="2UzMBbFxG-jk5nLvKuJf-1" vertex="1">
          <mxGeometry x="310" y="32" width="160" height="100" as="geometry" />
        </mxCell>
        <mxCell id="2UzMBbFxG-jk5nLvKuJf-5" style="edgeStyle=orthogonalEdgeStyle;rounded=0;orthogonalLoop=1;jettySize=auto;html=1;endArrow=none;endFill=0;exitX=0;exitY=0.5;exitDx=0;exitDy=0;" parent="2UzMBbFxG-jk5nLvKuJf-1" source="2UzMBbFxG-jk5nLvKuJf-6" target="2UzMBbFxG-jk5nLvKuJf-7" edge="1">
          <mxGeometry relative="1" as="geometry">
            <mxPoint x="920" y="430" as="sourcePoint" />
          </mxGeometry>
        </mxCell>
        <mxCell id="2UzMBbFxG-jk5nLvKuJf-6" value="&lt;p style=&quot;margin:0px;margin-top:4px;text-align:center;text-decoration:underline;&quot;&gt;&lt;b&gt;Langage&lt;/b&gt;&lt;/p&gt;&lt;hr size=&quot;1&quot; style=&quot;border-style:solid;&quot;&gt;&lt;p style=&quot;margin:0px;margin-left:8px;&quot;&gt;- &lt;u&gt;id : int&lt;/u&gt;&lt;/p&gt;&lt;p style=&quot;margin:0px;margin-left:8px;&quot;&gt;- langage : str&lt;/p&gt;" style="verticalAlign=top;align=left;overflow=fill;html=1;whiteSpace=wrap;" parent="2UzMBbFxG-jk5nLvKuJf-1" vertex="1">
          <mxGeometry x="1009" y="466" width="160" height="100" as="geometry" />
        </mxCell>
        <mxCell id="2UzMBbFxG-jk5nLvKuJf-7" value="&lt;p style=&quot;margin:0px;margin-top:4px;text-align:center;text-decoration:underline;&quot;&gt;&lt;b&gt;Original_spoken&lt;/b&gt;&lt;/p&gt;&lt;hr size=&quot;1&quot; style=&quot;border-style:solid;&quot;&gt;&lt;p style=&quot;margin:0px;margin-left:8px;&quot;&gt;&lt;span style=&quot;background-color: initial;&quot;&gt;&lt;u&gt;- id_lang * : int&lt;/u&gt;&lt;/span&gt;&lt;/p&gt;&lt;p style=&quot;margin:0px;margin-left:8px;&quot;&gt;&lt;u&gt;- id_film * : int&lt;/u&gt;&lt;/p&gt;&lt;p style=&quot;margin:0px;margin-left:8px;&quot;&gt;- original : boolean&lt;/p&gt;&lt;p style=&quot;margin:0px;margin-left:8px;&quot;&gt;&lt;br&gt;&lt;/p&gt;&lt;p style=&quot;margin:0px;margin-left:8px;&quot;&gt;&lt;br&gt;&lt;/p&gt;&lt;p style=&quot;margin:0px;margin-left:8px;&quot;&gt;traitement à gérer sous python (original_langage et spoken_langage)&lt;/p&gt;" style="verticalAlign=top;align=left;overflow=fill;html=1;whiteSpace=wrap;" parent="2UzMBbFxG-jk5nLvKuJf-1" vertex="1">
          <mxGeometry x="660" y="322" width="160" height="100" as="geometry" />
        </mxCell>
        <mxCell id="2UzMBbFxG-jk5nLvKuJf-9" value="1" style="text;align=center;fontStyle=1;verticalAlign=middle;spacingLeft=3;spacingRight=3;strokeColor=none;rotatable=0;points=[[0,0.5],[1,0.5]];portConstraint=eastwest;html=1;" parent="2UzMBbFxG-jk5nLvKuJf-1" vertex="1">
          <mxGeometry x="959" y="488" width="50" height="26" as="geometry" />
        </mxCell>
        <mxCell id="2UzMBbFxG-jk5nLvKuJf-10" value="*" style="text;align=center;fontStyle=1;verticalAlign=middle;spacingLeft=3;spacingRight=3;strokeColor=none;rotatable=0;points=[[0,0.5],[1,0.5]];portConstraint=eastwest;html=1;" parent="2UzMBbFxG-jk5nLvKuJf-1" vertex="1">
          <mxGeometry x="610" y="382" width="50" height="26" as="geometry" />
        </mxCell>
        <mxCell id="2UzMBbFxG-jk5nLvKuJf-11" style="edgeStyle=orthogonalEdgeStyle;rounded=0;orthogonalLoop=1;jettySize=auto;html=1;exitX=1;exitY=0.748;exitDx=0;exitDy=0;endArrow=none;endFill=0;exitPerimeter=0;" parent="2UzMBbFxG-jk5nLvKuJf-1" source="2UzMBbFxG-jk5nLvKuJf-2" target="2UzMBbFxG-jk5nLvKuJf-7" edge="1">
          <mxGeometry relative="1" as="geometry">
            <mxPoint x="210" y="450" as="sourcePoint" />
            <mxPoint x="320" y="450" as="targetPoint" />
          </mxGeometry>
        </mxCell>
        <mxCell id="2UzMBbFxG-jk5nLvKuJf-13" value="1" style="text;align=center;fontStyle=1;verticalAlign=middle;spacingLeft=3;spacingRight=3;strokeColor=none;rotatable=0;points=[[0,0.5],[1,0.5]];portConstraint=eastwest;html=1;" parent="2UzMBbFxG-jk5nLvKuJf-1" vertex="1">
          <mxGeometry x="714" y="176" width="50" height="26" as="geometry" />
        </mxCell>
        <mxCell id="2UzMBbFxG-jk5nLvKuJf-14" style="edgeStyle=orthogonalEdgeStyle;rounded=0;orthogonalLoop=1;jettySize=auto;html=1;exitX=0.5;exitY=1;exitDx=0;exitDy=0;endArrow=none;endFill=0;" parent="2UzMBbFxG-jk5nLvKuJf-1" source="2UzMBbFxG-jk5nLvKuJf-4" edge="1">
          <mxGeometry relative="1" as="geometry">
            <mxPoint x="389" y="170" as="sourcePoint" />
            <mxPoint x="389" y="200" as="targetPoint" />
          </mxGeometry>
        </mxCell>
        <mxCell id="2UzMBbFxG-jk5nLvKuJf-15" value="1" style="text;align=center;fontStyle=1;verticalAlign=middle;spacingLeft=3;spacingRight=3;strokeColor=none;rotatable=0;points=[[0,0.5],[1,0.5]];portConstraint=eastwest;html=1;" parent="2UzMBbFxG-jk5nLvKuJf-1" vertex="1">
          <mxGeometry x="396" y="174" width="50" height="26" as="geometry" />
        </mxCell>
        <mxCell id="2UzMBbFxG-jk5nLvKuJf-16" value="*" style="text;align=center;fontStyle=1;verticalAlign=middle;spacingLeft=3;spacingRight=3;strokeColor=none;rotatable=0;points=[[0,0.5],[1,0.5]];portConstraint=eastwest;html=1;" parent="2UzMBbFxG-jk5nLvKuJf-1" vertex="1">
          <mxGeometry x="340" y="150" width="50" height="26" as="geometry" />
        </mxCell>
        <mxCell id="2UzMBbFxG-jk5nLvKuJf-17" style="edgeStyle=orthogonalEdgeStyle;rounded=0;orthogonalLoop=1;jettySize=auto;html=1;exitX=1;exitY=0.5;exitDx=0;exitDy=0;endArrow=none;endFill=0;entryX=0;entryY=0.5;entryDx=0;entryDy=0;" parent="2UzMBbFxG-jk5nLvKuJf-1" source="2UzMBbFxG-jk5nLvKuJf-3" target="2UzMBbFxG-jk5nLvKuJf-4" edge="1">
          <mxGeometry relative="1" as="geometry">
            <mxPoint x="400" y="160" as="sourcePoint" />
            <mxPoint x="399" y="240" as="targetPoint" />
            <Array as="points">
              <mxPoint x="210" y="80" />
              <mxPoint x="260" y="80" />
              <mxPoint x="260" y="82" />
            </Array>
          </mxGeometry>
        </mxCell>
        <mxCell id="2UzMBbFxG-jk5nLvKuJf-18" value="*" style="text;align=center;fontStyle=1;verticalAlign=middle;spacingLeft=3;spacingRight=3;strokeColor=none;rotatable=0;points=[[0,0.5],[1,0.5]];portConstraint=eastwest;html=1;" parent="2UzMBbFxG-jk5nLvKuJf-1" vertex="1">
          <mxGeometry x="260" y="50" width="50" height="26" as="geometry" />
        </mxCell>
        <mxCell id="2UzMBbFxG-jk5nLvKuJf-19" value="1" style="text;align=center;fontStyle=1;verticalAlign=middle;spacingLeft=3;spacingRight=3;strokeColor=none;rotatable=0;points=[[0,0.5],[1,0.5]];portConstraint=eastwest;html=1;" parent="2UzMBbFxG-jk5nLvKuJf-1" vertex="1">
          <mxGeometry x="210" y="87" width="50" height="26" as="geometry" />
        </mxCell>
        <mxCell id="2UzMBbFxG-jk5nLvKuJf-23" value="&lt;p style=&quot;margin:0px;margin-top:4px;text-align:center;text-decoration:underline;&quot;&gt;&lt;b&gt;Production_Company&lt;/b&gt;&lt;/p&gt;&lt;hr size=&quot;1&quot; style=&quot;border-style:solid;&quot;&gt;&lt;p style=&quot;margin:0px;margin-left:8px;&quot;&gt;- &lt;u&gt;id : int&lt;/u&gt;&lt;/p&gt;&lt;p style=&quot;margin:0px;margin-left:8px;&quot;&gt;- company : str&lt;/p&gt;" style="verticalAlign=top;align=left;overflow=fill;html=1;whiteSpace=wrap;" parent="2UzMBbFxG-jk5nLvKuJf-1" vertex="1">
          <mxGeometry x="600" y="40" width="160" height="100" as="geometry" />
        </mxCell>
        <mxCell id="2UzMBbFxG-jk5nLvKuJf-24" value="&lt;p style=&quot;margin:0px;margin-top:4px;text-align:center;text-decoration:underline;&quot;&gt;&lt;b&gt;Assoc_production_company&lt;/b&gt;&lt;/p&gt;&lt;hr size=&quot;1&quot; style=&quot;border-style:solid;&quot;&gt;&lt;p style=&quot;margin:0px;margin-left:8px;&quot;&gt;&lt;span style=&quot;background-color: initial;&quot;&gt;&lt;u&gt;- id_film * : int&lt;/u&gt;&lt;/span&gt;&lt;/p&gt;&lt;p style=&quot;margin:0px;margin-left:8px;&quot;&gt;&lt;u&gt;- id_company * : int&lt;/u&gt;&lt;/p&gt;" style="verticalAlign=top;align=left;overflow=fill;html=1;whiteSpace=wrap;" parent="2UzMBbFxG-jk5nLvKuJf-1" vertex="1">
          <mxGeometry x="585" y="182" width="190" height="100" as="geometry" />
        </mxCell>
        <mxCell id="2UzMBbFxG-jk5nLvKuJf-25" style="edgeStyle=orthogonalEdgeStyle;rounded=0;orthogonalLoop=1;jettySize=auto;html=1;exitX=0;exitY=0.5;exitDx=0;exitDy=0;endArrow=none;endFill=0;entryX=1;entryY=0.5;entryDx=0;entryDy=0;" parent="2UzMBbFxG-jk5nLvKuJf-1" source="2UzMBbFxG-jk5nLvKuJf-24" target="2UzMBbFxG-jk5nLvKuJf-2" edge="1">
          <mxGeometry relative="1" as="geometry">
            <mxPoint x="400" y="160" as="sourcePoint" />
            <mxPoint x="399" y="240" as="targetPoint" />
          </mxGeometry>
        </mxCell>
        <mxCell id="2UzMBbFxG-jk5nLvKuJf-26" value="1" style="text;align=center;fontStyle=1;verticalAlign=middle;spacingLeft=3;spacingRight=3;strokeColor=none;rotatable=0;points=[[0,0.5],[1,0.5]];portConstraint=eastwest;html=1;" parent="2UzMBbFxG-jk5nLvKuJf-1" vertex="1">
          <mxGeometry x="470" y="282" width="50" height="26" as="geometry" />
        </mxCell>
        <mxCell id="2UzMBbFxG-jk5nLvKuJf-27" value="*" style="text;align=center;fontStyle=1;verticalAlign=middle;spacingLeft=3;spacingRight=3;strokeColor=none;rotatable=0;points=[[0,0.5],[1,0.5]];portConstraint=eastwest;html=1;" parent="2UzMBbFxG-jk5nLvKuJf-1" vertex="1">
          <mxGeometry x="535" y="236" width="50" height="26" as="geometry" />
        </mxCell>
        <mxCell id="2UzMBbFxG-jk5nLvKuJf-28" style="edgeStyle=orthogonalEdgeStyle;rounded=0;orthogonalLoop=1;jettySize=auto;html=1;exitX=0.5;exitY=1;exitDx=0;exitDy=0;endArrow=none;endFill=0;" parent="2UzMBbFxG-jk5nLvKuJf-1" source="2UzMBbFxG-jk5nLvKuJf-23" edge="1">
          <mxGeometry relative="1" as="geometry">
            <mxPoint x="595" y="236" as="sourcePoint" />
            <mxPoint x="680" y="180" as="targetPoint" />
          </mxGeometry>
        </mxCell>
        <mxCell id="2UzMBbFxG-jk5nLvKuJf-29" value="1" style="text;align=center;fontStyle=1;verticalAlign=middle;spacingLeft=3;spacingRight=3;strokeColor=none;rotatable=0;points=[[0,0.5],[1,0.5]];portConstraint=eastwest;html=1;" parent="2UzMBbFxG-jk5nLvKuJf-1" vertex="1">
          <mxGeometry x="620" y="136" width="50" height="34" as="geometry" />
        </mxCell>
        <mxCell id="2UzMBbFxG-jk5nLvKuJf-30" value="*" style="text;align=center;fontStyle=1;verticalAlign=middle;spacingLeft=3;spacingRight=3;strokeColor=none;rotatable=0;points=[[0,0.5],[1,0.5]];portConstraint=eastwest;html=1;" parent="2UzMBbFxG-jk5nLvKuJf-1" vertex="1">
          <mxGeometry x="690" y="156" width="50" height="26" as="geometry" />
        </mxCell>
        <mxCell id="2UzMBbFxG-jk5nLvKuJf-38" value="&lt;p style=&quot;margin:0px;margin-top:4px;text-align:center;text-decoration:underline;&quot;&gt;&lt;b&gt;Collection&lt;/b&gt;&lt;/p&gt;&lt;hr size=&quot;1&quot; style=&quot;border-style:solid;&quot;&gt;&lt;p style=&quot;margin:0px;margin-left:8px;&quot;&gt;- &lt;u&gt;id : int&lt;/u&gt;&lt;/p&gt;&lt;p style=&quot;margin:0px;margin-left:8px;&quot;&gt;- id_film * : str&lt;/p&gt;&lt;p style=&quot;margin:0px;margin-left:8px;&quot;&gt;- name : str&lt;/p&gt;&lt;p style=&quot;margin:0px;margin-left:8px;&quot;&gt;&lt;br&gt;&lt;/p&gt;" style="verticalAlign=top;align=left;overflow=fill;html=1;whiteSpace=wrap;" parent="2UzMBbFxG-jk5nLvKuJf-1" vertex="1">
          <mxGeometry x="310" y="548" width="160" height="110" as="geometry" />
        </mxCell>
        <mxCell id="2UzMBbFxG-jk5nLvKuJf-43" style="edgeStyle=orthogonalEdgeStyle;rounded=0;orthogonalLoop=1;jettySize=auto;html=1;endArrow=none;endFill=0;exitX=0.5;exitY=1;exitDx=0;exitDy=0;entryX=0.5;entryY=0;entryDx=0;entryDy=0;" parent="2UzMBbFxG-jk5nLvKuJf-1" target="2UzMBbFxG-jk5nLvKuJf-38" edge="1">
          <mxGeometry relative="1" as="geometry">
            <mxPoint x="390" y="468" as="sourcePoint" />
            <mxPoint x="530" y="568" as="targetPoint" />
            <Array as="points">
              <mxPoint x="390" y="538" />
              <mxPoint x="390" y="538" />
            </Array>
          </mxGeometry>
        </mxCell>
        <mxCell id="v6lag2_lKAMTokFdCcw8-0" value="&lt;p style=&quot;margin:0px;margin-top:4px;text-align:center;text-decoration:underline;&quot;&gt;&lt;b&gt;Directeur&lt;/b&gt;&lt;/p&gt;&lt;hr size=&quot;1&quot; style=&quot;border-style:solid;&quot;&gt;&lt;p style=&quot;margin:0px;margin-left:8px;&quot;&gt;- &lt;u&gt;id : int&lt;/u&gt;&lt;/p&gt;&lt;p style=&quot;margin:0px;margin-left:8px;&quot;&gt;- nom : str&lt;/p&gt;&lt;p style=&quot;margin:0px;margin-left:8px;&quot;&gt;- prenom : str&lt;/p&gt;" style="verticalAlign=top;align=left;overflow=fill;html=1;whiteSpace=wrap;" parent="2UzMBbFxG-jk5nLvKuJf-1" vertex="1">
          <mxGeometry x="-190" y="150" width="160" height="100" as="geometry" />
        </mxCell>
        <mxCell id="v6lag2_lKAMTokFdCcw8-2" value="&lt;p style=&quot;margin:0px;margin-top:4px;text-align:center;text-decoration:underline;&quot;&gt;&lt;b&gt;Acteur&lt;/b&gt;&lt;/p&gt;&lt;hr size=&quot;1&quot; style=&quot;border-style:solid;&quot;&gt;&lt;p style=&quot;margin:0px;margin-left:8px;&quot;&gt;- &lt;u&gt;id : int&lt;/u&gt;&lt;/p&gt;&lt;p style=&quot;margin:0px;margin-left:8px;&quot;&gt;- nom : str&lt;/p&gt;&lt;p style=&quot;margin:0px;margin-left:8px;&quot;&gt;- prenom : str&lt;/p&gt;" style="verticalAlign=top;align=left;overflow=fill;html=1;whiteSpace=wrap;" parent="2UzMBbFxG-jk5nLvKuJf-1" vertex="1">
          <mxGeometry x="-120" y="540" width="160" height="100" as="geometry" />
        </mxCell>
        <mxCell id="v6lag2_lKAMTokFdCcw8-3" style="edgeStyle=orthogonalEdgeStyle;rounded=0;orthogonalLoop=1;jettySize=auto;html=1;exitX=1;exitY=0.5;exitDx=0;exitDy=0;endArrow=none;endFill=0;entryX=0;entryY=0;entryDx=0;entryDy=0;" parent="2UzMBbFxG-jk5nLvKuJf-1" source="v6lag2_lKAMTokFdCcw8-0" target="2UzMBbFxG-jk5nLvKuJf-2" edge="1">
          <mxGeometry relative="1" as="geometry">
            <mxPoint x="49.75" y="375" as="sourcePoint" />
            <mxPoint x="109.75" y="340" as="targetPoint" />
            <Array as="points">
              <mxPoint x="220" y="200" />
              <mxPoint x="220" y="200" />
            </Array>
          </mxGeometry>
        </mxCell>
        <mxCell id="v6lag2_lKAMTokFdCcw8-4" value="0..1" style="text;align=center;fontStyle=1;verticalAlign=middle;spacingLeft=3;spacingRight=3;strokeColor=none;rotatable=0;points=[[0,0.5],[1,0.5]];portConstraint=eastwest;html=1;" parent="2UzMBbFxG-jk5nLvKuJf-1" vertex="1">
          <mxGeometry x="-30" y="174" width="50" height="26" as="geometry" />
        </mxCell>
        <mxCell id="v6lag2_lKAMTokFdCcw8-5" value="*" style="text;align=center;fontStyle=1;verticalAlign=middle;spacingLeft=3;spacingRight=3;strokeColor=none;rotatable=0;points=[[0,0.5],[1,0.5]];portConstraint=eastwest;html=1;" parent="2UzMBbFxG-jk5nLvKuJf-1" vertex="1">
          <mxGeometry x="260" y="200" width="50" height="26" as="geometry" />
        </mxCell>
        <mxCell id="v6lag2_lKAMTokFdCcw8-6" value="&lt;p style=&quot;margin:0px;margin-top:4px;text-align:center;text-decoration:underline;&quot;&gt;&lt;b&gt;Assoc_acteur_film&lt;/b&gt;&lt;/p&gt;&lt;hr size=&quot;1&quot; style=&quot;border-style:solid;&quot;&gt;&lt;p style=&quot;margin:0px;margin-left:8px;&quot;&gt;&lt;span style=&quot;background-color: initial;&quot;&gt;&lt;u&gt;- id_act * : int&lt;/u&gt;&lt;/span&gt;&lt;/p&gt;&lt;p style=&quot;margin:0px;margin-left:8px;&quot;&gt;&lt;u&gt;- id_film * : int&lt;/u&gt;&lt;/p&gt;" style="verticalAlign=top;align=left;overflow=fill;html=1;whiteSpace=wrap;" parent="2UzMBbFxG-jk5nLvKuJf-1" vertex="1">
          <mxGeometry x="-170" y="282" width="160" height="100" as="geometry" />
        </mxCell>
        <mxCell id="v6lag2_lKAMTokFdCcw8-7" style="edgeStyle=orthogonalEdgeStyle;rounded=0;orthogonalLoop=1;jettySize=auto;html=1;endArrow=none;endFill=0;entryX=0.5;entryY=0;entryDx=0;entryDy=0;exitX=0.5;exitY=1;exitDx=0;exitDy=0;" parent="2UzMBbFxG-jk5nLvKuJf-1" source="v6lag2_lKAMTokFdCcw8-6" target="v6lag2_lKAMTokFdCcw8-2" edge="1">
          <mxGeometry relative="1" as="geometry">
            <mxPoint x="-90" y="394" as="sourcePoint" />
            <mxPoint x="270" y="790" as="targetPoint" />
            <Array as="points">
              <mxPoint x="-90" y="460" />
              <mxPoint x="-40" y="460" />
            </Array>
          </mxGeometry>
        </mxCell>
        <mxCell id="v6lag2_lKAMTokFdCcw8-8" value="1" style="text;align=center;fontStyle=1;verticalAlign=middle;spacingLeft=3;spacingRight=3;strokeColor=none;rotatable=0;points=[[0,0.5],[1,0.5]];portConstraint=eastwest;html=1;" parent="2UzMBbFxG-jk5nLvKuJf-1" vertex="1">
          <mxGeometry x="-100" y="514" width="50" height="26" as="geometry" />
        </mxCell>
        <mxCell id="v6lag2_lKAMTokFdCcw8-9" value="*" style="text;align=center;fontStyle=1;verticalAlign=middle;spacingLeft=3;spacingRight=3;strokeColor=none;rotatable=0;points=[[0,0.5],[1,0.5]];portConstraint=eastwest;html=1;" parent="2UzMBbFxG-jk5nLvKuJf-1" vertex="1">
          <mxGeometry x="-10" y="304" width="50" height="26" as="geometry" />
        </mxCell>
        <mxCell id="v6lag2_lKAMTokFdCcw8-11" value="1" style="text;align=center;fontStyle=1;verticalAlign=middle;spacingLeft=3;spacingRight=3;strokeColor=none;rotatable=0;points=[[0,0.5],[1,0.5]];portConstraint=eastwest;html=1;" parent="2UzMBbFxG-jk5nLvKuJf-1" vertex="1">
          <mxGeometry x="270" y="236" width="50" height="26" as="geometry" />
        </mxCell>
        <mxCell id="v6lag2_lKAMTokFdCcw8-14" style="edgeStyle=orthogonalEdgeStyle;rounded=0;orthogonalLoop=1;jettySize=auto;html=1;endArrow=none;endFill=0;entryX=1;entryY=0.5;entryDx=0;entryDy=0;exitX=0;exitY=0.25;exitDx=0;exitDy=0;" parent="2UzMBbFxG-jk5nLvKuJf-1" source="2UzMBbFxG-jk5nLvKuJf-2" target="v6lag2_lKAMTokFdCcw8-6" edge="1">
          <mxGeometry relative="1" as="geometry">
            <mxPoint x="360" y="277.25" as="sourcePoint" />
            <mxPoint x="220" y="398.75" as="targetPoint" />
            <Array as="points">
              <mxPoint x="250" y="233" />
              <mxPoint x="250" y="332" />
            </Array>
          </mxGeometry>
        </mxCell>
        <mxCell id="v6lag2_lKAMTokFdCcw8-15" value="*" style="text;align=center;fontStyle=1;verticalAlign=middle;spacingLeft=3;spacingRight=3;strokeColor=none;rotatable=0;points=[[0,0.5],[1,0.5]];portConstraint=eastwest;html=1;" parent="2UzMBbFxG-jk5nLvKuJf-1" vertex="1">
          <mxGeometry x="-90" y="382" width="50" height="26" as="geometry" />
        </mxCell>
        <mxCell id="bw-bmElaB9IqUnMvs87G-1" value="1" style="text;align=center;fontStyle=1;verticalAlign=middle;spacingLeft=3;spacingRight=3;strokeColor=none;rotatable=0;points=[[0,0.5],[1,0.5]];portConstraint=eastwest;html=1;" parent="2UzMBbFxG-jk5nLvKuJf-1" vertex="1">
          <mxGeometry x="470" y="360" width="50" height="26" as="geometry" />
        </mxCell>
        <mxCell id="bw-bmElaB9IqUnMvs87G-3" value="*" style="text;align=center;fontStyle=1;verticalAlign=middle;spacingLeft=3;spacingRight=3;strokeColor=none;rotatable=0;points=[[0,0.5],[1,0.5]];portConstraint=eastwest;html=1;" parent="2UzMBbFxG-jk5nLvKuJf-1" vertex="1">
          <mxGeometry x="690" y="426" width="50" height="26" as="geometry" />
        </mxCell>
        <mxCell id="D5rh6VKLGtbffhpy3Fn9-0" value="*" style="text;align=center;fontStyle=1;verticalAlign=middle;spacingLeft=3;spacingRight=3;strokeColor=none;rotatable=0;points=[[0,0.5],[1,0.5]];portConstraint=eastwest;html=1;" vertex="1" parent="2UzMBbFxG-jk5nLvKuJf-1">
          <mxGeometry x="379" y="468" width="50" height="26" as="geometry" />
        </mxCell>
        <mxCell id="D5rh6VKLGtbffhpy3Fn9-1" value="1" style="text;align=center;fontStyle=1;verticalAlign=middle;spacingLeft=3;spacingRight=3;strokeColor=none;rotatable=0;points=[[0,0.5],[1,0.5]];portConstraint=eastwest;html=1;" vertex="1" parent="2UzMBbFxG-jk5nLvKuJf-1">
          <mxGeometry x="320" y="518" width="50" height="26" as="geometry" />
        </mxCell>
      </root>
    </mxGraphModel>
  </diagram>
</mxfile>
